<svg width="273" height="273" viewBox="0 0 273 273" fill="none" xmlns="http://www.w3.org/2000/svg">
<path d="M225.356 173.647C227.939 182.917 222.406 192.5 213.087 194.898V194.898C206.576 196.574 201.64 201.893 200.456 208.512V208.512C198.761 217.984 189.618 224.218 180.181 222.335V222.335C173.587 221.019 166.832 223.67 162.894 229.12V229.12C157.257 236.919 146.314 238.568 138.629 232.777V232.777C133.259 228.731 126.023 228.188 120.11 231.389V231.389C111.648 235.97 101.073 232.708 96.6616 224.156V224.156C93.5793 218.181 87.2948 214.553 80.5788 214.871V214.871C70.9668 215.326 62.8547 207.799 62.5906 198.18V198.18C62.4061 191.459 58.3183 185.463 52.1294 182.836V182.836C43.2715 179.076 39.2286 168.775 43.1643 159.994V159.994C45.9142 153.858 44.8326 146.683 40.3965 141.63V141.63C34.0473 134.399 34.8743 123.364 42.2303 117.16V117.16C47.3699 112.825 49.5088 105.891 47.7041 99.4145V99.4145C45.1211 90.1447 50.6542 80.5612 59.9735 78.1633V78.1633C66.4849 76.4878 71.4207 71.1683 72.6048 64.5499V64.5499C74.2997 55.0775 83.4429 48.8437 92.8797 50.7267V50.7267C99.4732 52.0424 106.228 49.3912 110.167 43.9421V43.9421C115.804 36.143 126.746 34.4937 134.432 40.2847V40.2847C139.801 44.3309 147.038 44.8732 152.95 41.6725V41.6725C161.413 37.0916 171.987 40.3534 176.399 48.9055V48.9055C179.481 54.8808 185.766 58.5091 192.482 58.1909V58.1909C202.094 57.7354 210.206 65.2622 210.47 74.8815V74.8815C210.654 81.6024 214.742 87.5982 220.931 90.2254V90.2254C229.789 93.9855 233.832 104.287 229.896 113.068V113.068C227.146 119.203 228.228 126.379 232.664 131.431V131.431C239.013 138.662 238.186 149.697 230.83 155.901V155.901C225.691 160.236 223.552 167.17 225.356 173.647V173.647Z" fill="#FC7EFF"/>
<g clip-path="url(#clip0_1205_122)">
<path d="M155.25 59.74L155.098 60.4704L151.672 59.759L151.245 61.8363L154.244 62.4623L154.092 63.1927L151.093 62.5666L150.477 65.5545L149.604 65.3743L150.961 58.8389L155.25 59.7305V59.74Z" fill="#1D1D1B"/>
<path d="M157.434 60.3282L155.821 66.0289L159.218 66.9869L159.019 67.7078L154.768 66.5032L156.59 60.0815L157.444 60.3187L157.434 60.3282Z" fill="#1D1D1B"/>
<path d="M161.107 63.4866C161.382 63.1356 161.695 62.8605 162.065 62.6519C162.426 62.4432 162.834 62.3199 163.27 62.2724C163.707 62.2345 164.181 62.3009 164.675 62.4906C165.168 62.6803 165.576 62.9269 165.88 63.2494C166.184 63.5719 166.412 63.9324 166.544 64.3308C166.677 64.7292 166.744 65.1465 166.715 65.5923C166.696 66.0287 166.601 66.465 166.44 66.8918C166.279 67.3187 166.06 67.7076 165.795 68.0491C165.52 68.4 165.206 68.6751 164.836 68.8838C164.466 69.0925 164.068 69.2158 163.631 69.2537C163.194 69.2917 162.72 69.2158 162.227 69.0355C161.733 68.8458 161.325 68.5992 161.021 68.2767C160.718 67.9542 160.49 67.6032 160.357 67.2049C160.224 66.8065 160.158 66.3891 160.186 65.9433C160.205 65.507 160.3 65.0706 160.461 64.6438C160.623 64.217 160.841 63.8281 161.107 63.4866V63.4866ZM161.059 65.9338C161.021 66.2658 161.059 66.5978 161.135 66.9013C161.221 67.2143 161.372 67.4894 161.591 67.7455C161.809 68.0016 162.103 68.1913 162.483 68.3336C162.862 68.4759 163.213 68.5233 163.546 68.4759C163.878 68.4285 164.172 68.3147 164.438 68.1344C164.703 67.9542 164.941 67.7266 165.13 67.4515C165.32 67.1764 165.482 66.8824 165.605 66.5693C165.719 66.2563 165.795 65.9243 165.833 65.5923C165.871 65.2603 165.833 64.9284 165.757 64.6248C165.671 64.3118 165.52 64.0367 165.301 63.7806C165.083 63.5245 164.779 63.3348 164.409 63.1925C164.03 63.0502 163.678 63.0028 163.346 63.0502C163.014 63.0977 162.72 63.2115 162.454 63.3917C162.189 63.5719 161.951 63.7996 161.762 64.0747C161.572 64.3497 161.41 64.6438 161.287 64.9568C161.164 65.2698 161.097 65.6018 161.059 65.9338Z" fill="#1D1D1B"/>
<path d="M170.691 72.6495L171.839 66.9582H171.82L167.929 71.2741L167.104 70.8567L168.565 64.1221L169.372 64.5299L168.053 70.0789H168.071L171.896 65.7915L172.76 66.2183L171.592 71.8432H171.611L175.312 67.4989L176.109 67.8973L171.526 73.0573L170.7 72.64L170.691 72.6495Z" fill="#1D1D1B"/>
<path d="M182.012 71.7388C182.572 72.1183 182.894 72.5451 182.989 73.0289C183.084 73.5126 182.951 74.0059 182.6 74.5181C182.249 75.0303 181.832 75.3338 181.348 75.4287C180.864 75.5235 180.351 75.3812 179.791 74.9923L178.102 73.8446L176.565 76.1021L175.834 75.5994L179.592 70.0884L182.012 71.7294V71.7388ZM179.972 74.2145C180.389 74.4991 180.75 74.6224 181.063 74.5845C181.376 74.537 181.642 74.3568 181.87 74.0248C182.097 73.6928 182.164 73.3798 182.088 73.0763C182.012 72.7728 181.765 72.4787 181.348 72.1941L179.905 71.2171L178.529 73.2375L179.972 74.2145V74.2145Z" fill="#1D1D1B"/>
<path d="M186.501 75.0873L184.404 81.9357L183.635 81.3287L184.309 79.2988L182.098 77.544L180.266 78.6538L179.555 78.0941L185.733 74.4707L186.501 75.0778V75.0873ZM184.556 78.5399L185.619 75.4098H185.6L182.781 77.1361L184.556 78.5399Z" fill="#1D1D1B"/>
<path d="M191.655 79.5739C192.12 80.0102 192.376 80.4655 192.423 80.9303C192.471 81.4046 192.31 81.8409 191.939 82.2298C191.664 82.5238 191.351 82.723 191.009 82.8179C190.668 82.9127 190.307 82.8653 189.937 82.6756H189.928C190.041 82.8463 190.117 82.9981 190.146 83.1499C190.174 83.2922 190.174 83.4344 190.146 83.5767C190.117 83.719 190.06 83.8518 189.985 83.9846C189.909 84.1174 189.823 84.2502 189.728 84.383C189.624 84.5063 189.52 84.6391 189.415 84.7624C189.301 84.8857 189.206 85.0185 189.111 85.1608C189.017 85.3031 188.941 85.4359 188.874 85.5687C188.808 85.7015 188.77 85.8532 188.76 85.9955L188.039 85.322C188.039 85.2272 188.077 85.1323 188.134 85.028C188.191 84.9237 188.276 84.8193 188.371 84.7055C188.466 84.5917 188.571 84.4778 188.684 84.345C188.798 84.2122 188.893 84.0889 188.979 83.9467C189.073 83.8139 189.149 83.6811 189.225 83.5483C189.301 83.4155 189.339 83.2827 189.358 83.1499C189.377 83.0171 189.358 82.8748 189.301 82.742C189.244 82.6092 189.149 82.4574 188.988 82.3152L187.403 80.8354L185.458 82.9127L184.812 82.3057L189.368 77.4302L191.664 79.5739H191.655ZM189.719 81.9168C189.88 82.0211 190.041 82.0875 190.203 82.116C190.364 82.1444 190.535 82.1349 190.696 82.078C190.858 82.0211 191.028 81.9073 191.19 81.7271C191.417 81.4804 191.541 81.2149 191.55 80.9398C191.55 80.6552 191.408 80.3707 191.104 80.0861L189.491 78.5779L187.906 80.2758L189.254 81.5374C189.406 81.6796 189.557 81.803 189.719 81.9073V81.9168Z" fill="#1D1D1B"/>
<path d="M193.106 82.0022L193.657 81.4995L197.263 85.4265L196.712 85.9292L195.203 84.2882L190.838 88.2911L190.24 87.6366L194.606 83.6337L193.097 81.9928L193.106 82.0022Z" fill="#1D1D1B"/>
<path d="M194.463 92.5972L193.912 91.8953L196.057 90.2069L197.556 85.7393L198.211 86.5645L196.949 90.1025L200.65 89.6757L201.276 90.4725L196.598 90.9088L194.453 92.5972H194.463Z" fill="#1D1D1B"/>
<path d="M201.629 97.7003L201.003 98.0987L199.551 95.8222L200.177 95.4238L201.629 97.7003Z" fill="#1D1D1B"/>
<path d="M208.908 103.335L208.244 103.676L206.649 100.565L204.761 101.533L206.156 104.264L205.492 104.606L204.097 101.874L201.373 103.268L200.965 102.481L206.906 99.4458L208.898 103.344L208.908 103.335Z" fill="#1D1D1B"/>
<path d="M209.808 105.384L204.351 107.698L205.737 110.952L205.053 111.246L203.326 107.176L209.466 104.568L209.817 105.384H209.808Z" fill="#1D1D1B"/>
<path d="M209.647 110.221C210.084 110.221 210.501 110.288 210.9 110.439C211.289 110.591 211.64 110.828 211.953 111.141C212.267 111.454 212.504 111.872 212.665 112.374C212.826 112.877 212.883 113.351 212.826 113.788C212.769 114.224 212.627 114.622 212.399 114.983C212.172 115.343 211.887 115.647 211.526 115.903C211.166 116.159 210.777 116.358 210.34 116.51C209.904 116.662 209.467 116.728 209.03 116.728C208.594 116.728 208.176 116.662 207.778 116.51C207.389 116.358 207.038 116.121 206.734 115.799C206.43 115.476 206.193 115.068 206.022 114.566C205.851 114.063 205.804 113.589 205.861 113.152C205.918 112.716 206.06 112.317 206.278 111.957C206.506 111.597 206.791 111.293 207.151 111.037C207.512 110.781 207.901 110.582 208.338 110.439C208.774 110.297 209.211 110.221 209.647 110.221V110.221ZM207.711 111.72C207.427 111.91 207.189 112.128 207 112.384C206.81 112.64 206.686 112.934 206.629 113.266C206.573 113.598 206.601 113.949 206.734 114.338C206.867 114.727 207.047 115.03 207.284 115.258C207.531 115.486 207.797 115.647 208.11 115.742C208.414 115.837 208.736 115.875 209.078 115.856C209.42 115.837 209.742 115.77 210.065 115.666C210.387 115.561 210.682 115.419 210.966 115.229C211.251 115.04 211.488 114.822 211.678 114.566C211.868 114.309 211.991 114.015 212.048 113.683C212.105 113.351 212.077 113 211.944 112.612C211.811 112.223 211.631 111.919 211.393 111.691C211.156 111.464 210.881 111.303 210.568 111.208C210.264 111.113 209.941 111.075 209.6 111.094C209.258 111.113 208.936 111.179 208.613 111.284C208.29 111.388 207.996 111.53 207.711 111.72Z" fill="#1D1D1B"/>
<path d="M208.518 123.444L213.681 120.769V120.75L207.873 120.428L207.674 119.527L213.833 116.444L214.023 117.326L208.87 119.773V119.792L214.62 120.077L214.82 121.016L209.705 123.634V123.653L215.418 123.805L215.607 124.668L208.708 124.336L208.509 123.435L208.518 123.444Z" fill="#1D1D1B"/>
<path d="M216.319 131.687C216.376 132.36 216.243 132.882 215.921 133.252C215.608 133.622 215.133 133.83 214.516 133.887C213.899 133.935 213.396 133.802 213.017 133.489C212.637 133.176 212.429 132.683 212.381 132.009L212.22 129.979L209.496 130.198L209.43 129.315L216.082 128.784L216.319 131.696V131.687ZM213.112 131.639C213.15 132.142 213.273 132.502 213.51 132.721C213.738 132.939 214.051 133.024 214.45 132.996C214.848 132.967 215.143 132.825 215.332 132.578C215.522 132.332 215.598 131.952 215.56 131.45L215.418 129.714L212.979 129.913L213.121 131.649L213.112 131.639Z" fill="#1D1D1B"/>
<path d="M216.527 137.255L209.893 139.967L209.874 138.99L211.877 138.232L211.829 135.414L209.808 134.703L209.789 133.792L216.508 136.278L216.527 137.255V137.255ZM212.617 137.938L215.711 136.771V136.752L212.579 135.671L212.617 137.928V137.938Z" fill="#1D1D1B"/>
<path d="M216.261 144.103C216.213 144.739 216.024 145.222 215.682 145.554C215.34 145.886 214.904 146.038 214.363 146C213.955 145.972 213.613 145.848 213.319 145.649C213.025 145.441 212.844 145.137 212.759 144.72H212.74C212.693 144.909 212.617 145.061 212.522 145.175C212.427 145.289 212.313 145.374 212.19 145.441C212.066 145.507 211.924 145.545 211.772 145.573C211.62 145.602 211.459 145.611 211.298 145.621C211.136 145.621 210.965 145.621 210.804 145.621C210.633 145.621 210.472 145.621 210.311 145.63C210.149 145.64 209.988 145.668 209.836 145.706C209.684 145.744 209.551 145.801 209.438 145.886L209.513 144.9C209.589 144.843 209.684 144.805 209.798 144.796C209.912 144.786 210.054 144.777 210.197 144.786C210.339 144.796 210.5 144.796 210.671 144.805C210.842 144.805 211.003 144.805 211.174 144.786C211.335 144.777 211.497 144.758 211.639 144.729C211.791 144.701 211.924 144.653 212.038 144.577C212.152 144.501 212.247 144.407 212.322 144.283C212.398 144.16 212.446 143.989 212.455 143.771L212.617 141.608L209.77 141.4L209.836 140.518L216.489 141.001L216.261 144.132V144.103ZM213.224 144.065C213.243 144.255 213.29 144.426 213.366 144.568C213.442 144.71 213.556 144.833 213.708 144.928C213.85 145.023 214.05 145.08 214.287 145.099C214.619 145.127 214.904 145.052 215.131 144.881C215.359 144.71 215.483 144.416 215.511 143.999L215.672 141.798L213.347 141.627L213.214 143.477C213.196 143.686 213.205 143.875 213.214 144.065H213.224Z" fill="#1D1D1B"/>
<path d="M215.293 146.759L216.033 146.873L215.236 152.147L214.496 152.033L214.828 149.832L208.973 148.95L209.106 148.068L214.97 148.95L215.302 146.75L215.293 146.759Z" fill="#1D1D1B"/>
<path d="M207.892 154.433L208.092 153.57L210.749 154.177L215.171 152.545L214.934 153.57L211.385 154.812L214.042 157.43L213.814 158.417L210.54 155.05L207.883 154.442L207.892 154.433Z" fill="#1D1D1B"/>
<path d="M208.395 163.226L207.684 162.989L208.547 160.428L209.259 160.665L208.395 163.226Z" fill="#1D1D1B"/>
<path d="M208.566 172.417L207.883 172.114L209.315 168.926L207.38 168.054L206.127 170.852L205.444 170.548L206.696 167.75L203.906 166.498L204.267 165.692L210.359 168.424L208.566 172.427V172.417Z" fill="#1D1D1B"/>
<path d="M207.531 174.39L202.311 171.592L200.641 174.703L199.986 174.352L202.074 170.454L207.958 173.603L207.54 174.381L207.531 174.39Z" fill="#1D1D1B"/>
<path d="M203.659 177.302C203.934 177.644 204.143 178.014 204.266 178.412C204.39 178.81 204.428 179.237 204.371 179.674C204.314 180.11 204.143 180.556 203.858 181.002C203.573 181.447 203.241 181.779 202.862 182.017C202.482 182.254 202.084 182.386 201.666 182.434C201.248 182.481 200.831 182.453 200.404 182.33C199.977 182.216 199.578 182.035 199.189 181.789C198.81 181.542 198.477 181.248 198.193 180.907C197.908 180.565 197.709 180.195 197.585 179.797C197.462 179.399 197.424 178.981 197.481 178.535C197.538 178.099 197.709 177.653 197.993 177.207C198.278 176.762 198.61 176.43 198.99 176.192C199.369 175.965 199.768 175.823 200.186 175.775C200.603 175.728 201.021 175.756 201.448 175.879C201.875 175.993 202.273 176.173 202.662 176.42C203.042 176.667 203.374 176.961 203.659 177.302V177.302ZM201.277 176.733C200.954 176.629 200.632 176.581 200.309 176.6C199.986 176.619 199.683 176.705 199.388 176.856C199.094 177.018 198.838 177.264 198.62 177.606C198.401 177.947 198.278 178.279 198.25 178.611C198.221 178.943 198.269 179.256 198.392 179.56C198.506 179.863 198.686 180.138 198.904 180.385C199.132 180.632 199.388 180.85 199.673 181.04C199.958 181.22 200.262 181.362 200.584 181.466C200.907 181.571 201.229 181.618 201.552 181.599C201.875 181.58 202.178 181.495 202.473 181.334C202.767 181.172 203.023 180.926 203.241 180.584C203.46 180.243 203.583 179.911 203.611 179.579C203.64 179.247 203.592 178.934 203.469 178.63C203.355 178.327 203.175 178.061 202.947 177.805C202.719 177.558 202.463 177.34 202.178 177.15C201.894 176.97 201.59 176.828 201.267 176.724L201.277 176.733Z" fill="#1D1D1B"/>
<path d="M192.651 184.701L197.975 187.034V187.015L194.596 182.292L195.175 181.571L201.439 184.435L200.869 185.137L195.726 182.671V182.69L199.095 187.338L198.487 188.087L193.239 185.744V185.763L196.694 190.307L196.134 190.999L192.062 185.422L192.641 184.701H192.651Z" fill="#1D1D1B"/>
<path d="M191.122 195.969C190.638 196.434 190.145 196.662 189.661 196.643C189.167 196.633 188.712 196.396 188.285 195.941C187.858 195.486 187.649 195.021 187.659 194.527C187.668 194.034 187.924 193.56 188.408 193.105L189.889 191.701L188.01 189.718L188.655 189.111L193.248 193.949L191.122 195.96V195.969ZM189.139 193.446C188.769 193.788 188.57 194.12 188.551 194.433C188.522 194.746 188.655 195.049 188.93 195.334C189.205 195.628 189.5 195.761 189.813 195.751C190.126 195.742 190.468 195.561 190.828 195.22L192.09 194.025L190.401 192.251L189.139 193.446V193.446Z" fill="#1D1D1B"/>
<path d="M186.881 199.659L180.627 196.159L181.386 195.533L183.227 196.624L185.41 194.831L184.717 192.801L185.419 192.223L187.649 199.024L186.89 199.65L186.881 199.659ZM183.92 197.022L186.757 198.72H186.776L185.676 195.59L183.929 197.022H183.92Z" fill="#1D1D1B"/>
<path d="M181.414 203.709C180.892 204.07 180.389 204.222 179.924 204.174C179.449 204.117 179.06 203.871 178.757 203.425C178.529 203.093 178.396 202.751 178.377 202.391C178.358 202.031 178.481 201.699 178.747 201.376V201.357C178.557 201.433 178.387 201.471 178.244 201.471C178.092 201.471 177.959 201.433 177.827 201.376C177.694 201.319 177.58 201.234 177.466 201.129C177.352 201.025 177.238 200.911 177.134 200.788C177.029 200.665 176.935 200.532 176.83 200.399C176.726 200.266 176.621 200.133 176.508 200.02C176.394 199.896 176.28 199.792 176.156 199.697C176.033 199.602 175.9 199.536 175.758 199.498L176.574 198.938C176.659 198.957 176.754 199.014 176.84 199.1C176.925 199.185 177.01 199.289 177.096 199.403C177.181 199.517 177.276 199.65 177.381 199.783C177.485 199.915 177.589 200.039 177.713 200.162C177.827 200.285 177.94 200.39 178.054 200.494C178.168 200.598 178.292 200.665 178.415 200.712C178.538 200.759 178.681 200.769 178.823 200.75C178.965 200.731 179.127 200.655 179.307 200.532L181.091 199.299L179.468 196.956L180.199 196.453L183.995 201.945L181.414 203.728V203.709ZM179.535 201.329C179.402 201.461 179.298 201.604 179.231 201.755C179.165 201.907 179.146 202.068 179.165 202.249C179.184 202.429 179.26 202.609 179.402 202.808C179.592 203.083 179.829 203.254 180.104 203.321C180.379 203.387 180.693 203.302 181.034 203.064L182.847 201.812L181.528 199.896L180.009 200.949C179.838 201.063 179.687 201.186 179.554 201.319L179.535 201.329Z" fill="#1D1D1B"/>
<path d="M178.729 204.63L179.109 205.275L174.497 207.959L174.117 207.314L176.034 206.195L173.045 201.082L173.814 200.636L176.803 205.749L178.729 204.63Z" fill="#1D1D1B"/>
<path d="M168.092 203.681L168.889 203.292L170.084 205.749L174.127 208.167L173.178 208.632L169.989 206.65L169.619 210.359L168.708 210.795L169.278 206.138L168.082 203.681H168.092Z" fill="#1D1D1B"/>
<path d="M161.561 209.581L161.305 208.879L163.838 207.95L164.095 208.652L161.561 209.581Z" fill="#1D1D1B"/>
<path d="M154.501 215.481L154.311 214.76L157.689 213.878L157.148 211.829L154.178 212.607L153.988 211.886L156.959 211.108L156.18 208.149L157.044 207.921L158.733 214.371L154.491 215.481H154.501Z" fill="#1D1D1B"/>
<path d="M152.299 215.917L151.207 210.093L147.734 210.748L147.592 210.017L151.938 209.202L153.162 215.756L152.289 215.917H152.299Z" fill="#1D1D1B"/>
<path d="M147.612 214.722C147.517 215.158 147.356 215.547 147.128 215.898C146.891 216.249 146.587 216.543 146.217 216.771C145.837 217.008 145.391 217.15 144.86 217.198C144.329 217.245 143.863 217.198 143.446 217.055C143.028 216.904 142.668 216.686 142.374 216.382C142.079 216.078 141.833 215.737 141.662 215.329C141.482 214.921 141.377 214.494 141.33 214.049C141.282 213.593 141.301 213.157 141.396 212.721C141.482 212.284 141.652 211.895 141.88 211.544C142.117 211.193 142.421 210.909 142.791 210.672C143.161 210.435 143.617 210.302 144.148 210.245C144.68 210.188 145.145 210.245 145.562 210.387C145.98 210.539 146.34 210.757 146.635 211.051C146.929 211.345 147.175 211.696 147.346 212.104C147.527 212.512 147.631 212.939 147.678 213.385C147.726 213.84 147.707 214.276 147.612 214.713V214.722ZM146.559 212.512C146.435 212.199 146.274 211.914 146.056 211.677C145.847 211.44 145.581 211.25 145.277 211.127C144.974 210.994 144.613 210.956 144.215 210.994C143.816 211.032 143.474 211.146 143.199 211.336C142.924 211.525 142.706 211.753 142.544 212.038C142.383 212.313 142.279 212.626 142.222 212.958C142.165 213.29 142.155 213.631 142.193 213.963C142.231 214.295 142.307 214.627 142.431 214.94C142.554 215.253 142.715 215.538 142.933 215.775C143.142 216.012 143.408 216.202 143.712 216.325C144.015 216.448 144.376 216.496 144.775 216.458C145.173 216.42 145.515 216.297 145.79 216.116C146.065 215.927 146.283 215.699 146.445 215.415C146.606 215.139 146.71 214.826 146.767 214.494C146.824 214.162 146.834 213.821 146.796 213.489C146.758 213.157 146.682 212.825 146.568 212.512H146.559Z" fill="#1D1D1B"/>
<path d="M134.952 210.767L136.385 216.401H136.404L138.036 210.823L138.966 210.842L140.57 217.539L139.659 217.52L138.444 211.952H138.425L136.84 217.473L135.882 217.454L134.496 211.876H134.477L133.035 217.406L132.143 217.387L134.041 210.748L134.971 210.767H134.952Z" fill="#1D1D1B"/>
<path d="M125.215 216.667C124.55 216.581 124.066 216.335 123.772 215.946C123.478 215.557 123.364 215.054 123.45 214.438C123.535 213.821 123.772 213.366 124.161 213.062C124.55 212.759 125.082 212.664 125.746 212.759L127.767 213.034L128.128 210.331L129.011 210.444L128.128 217.056L125.224 216.667H125.215ZM125.936 213.537C125.433 213.461 125.053 213.518 124.797 213.698C124.541 213.878 124.38 214.163 124.332 214.561C124.285 214.959 124.351 215.272 124.56 215.51C124.759 215.747 125.12 215.899 125.613 215.965L127.34 216.193L127.663 213.764L125.936 213.537V213.537Z" fill="#1D1D1B"/>
<path d="M119.702 215.689L118.506 208.632L119.464 208.832L119.768 210.947L122.53 211.525L123.668 209.714L124.56 209.894L120.66 215.898L119.702 215.699V215.689ZM119.891 211.734L120.347 215.007H120.366L122.103 212.199L119.891 211.744V211.734Z" fill="#1D1D1B"/>
<path d="M113.087 213.973C112.48 213.793 112.043 213.499 111.787 213.1C111.531 212.702 111.483 212.237 111.635 211.715C111.749 211.327 111.939 211.014 112.204 210.776C112.47 210.539 112.812 210.416 113.229 210.425V210.406C113.059 210.312 112.926 210.207 112.831 210.093C112.736 209.98 112.679 209.847 112.641 209.714C112.603 209.581 112.594 209.429 112.603 209.278C112.613 209.126 112.632 208.965 112.66 208.803C112.698 208.642 112.736 208.481 112.774 208.32C112.812 208.158 112.85 207.997 112.869 207.836C112.888 207.675 112.897 207.513 112.897 207.362C112.897 207.21 112.859 207.068 112.802 206.925L113.751 207.21C113.789 207.295 113.808 207.39 113.789 207.513C113.78 207.637 113.751 207.76 113.713 207.902C113.675 208.045 113.637 208.196 113.599 208.358C113.562 208.519 113.533 208.68 113.514 208.851C113.495 209.012 113.476 209.173 113.476 209.325C113.476 209.477 113.495 209.619 113.533 209.742C113.581 209.866 113.656 209.98 113.761 210.084C113.865 210.188 114.027 210.264 114.235 210.331L116.314 210.947L117.13 208.215L117.984 208.471L116.086 214.865L113.078 213.973H113.087ZM113.77 211.014C113.581 210.995 113.41 211.004 113.248 211.051C113.087 211.099 112.945 211.184 112.821 211.308C112.698 211.431 112.603 211.611 112.527 211.839C112.432 212.161 112.442 212.455 112.565 212.711C112.679 212.968 112.945 213.157 113.343 213.271L115.46 213.897L116.124 211.668L114.349 211.137C114.15 211.08 113.96 211.042 113.77 211.014Z" fill="#1D1D1B"/>
<path d="M110.678 212.445L110.412 213.147L105.43 211.241L105.695 210.539L107.774 211.336L109.89 205.806L110.716 206.119L108.599 211.649L110.678 212.445V212.445Z" fill="#1D1D1B"/>
<path d="M104.774 203.577L105.581 203.956L104.414 206.422L105.059 211.089L104.1 210.634L103.654 206.906L100.532 208.936L99.6211 208.5L103.616 206.034L104.784 203.567L104.774 203.577Z" fill="#1D1D1B"/>
<path d="M96.0723 202.173L96.4614 201.528L98.7769 202.922L98.3878 203.558L96.0723 202.163V202.173Z" fill="#1D1D1B"/>
<path d="M87.0469 200.371L87.4929 199.773L90.3019 201.851L91.5641 200.143L89.0967 198.322L89.5427 197.724L92.0101 199.546L93.8322 197.089L94.5439 197.62L90.5771 202.979L87.0564 200.371H87.0469Z" fill="#1D1D1B"/>
<path d="M85.3301 198.939L89.183 194.433L86.4973 192.137L86.9813 191.568L90.3408 194.442L86.0039 199.517L85.3301 198.939Z" fill="#1D1D1B"/>
<path d="M83.3168 194.537C82.9277 194.737 82.5197 194.86 82.1021 194.898C81.6846 194.936 81.267 194.879 80.8495 194.737C80.4319 194.585 80.0333 194.329 79.6632 193.949C79.2931 193.57 79.0274 193.171 78.885 192.754C78.7427 192.337 78.6858 191.919 78.7332 191.502C78.7712 191.085 78.8945 190.677 79.1033 190.288C79.3121 189.899 79.5683 189.539 79.891 189.216C80.2136 188.894 80.5742 188.637 80.9633 188.438C81.3524 188.239 81.7605 188.116 82.178 188.078C82.5956 188.04 83.0132 188.097 83.4307 188.249C83.8483 188.4 84.2374 188.656 84.617 189.036C84.9965 189.415 85.2528 189.804 85.3951 190.221C85.5375 190.639 85.5944 191.056 85.5565 191.474C85.5185 191.891 85.3951 192.299 85.1863 192.688C84.9776 193.077 84.7213 193.437 84.3987 193.75C84.076 194.073 83.7154 194.329 83.3263 194.528L83.3168 194.537ZM84.3797 192.327C84.5505 192.033 84.6644 191.73 84.7213 191.417C84.7783 191.104 84.7593 190.781 84.6644 190.459C84.5695 190.136 84.3797 189.833 84.095 189.548C83.8103 189.263 83.5066 189.074 83.184 188.969C82.8613 188.865 82.5481 188.856 82.2255 188.903C81.9123 188.95 81.5992 189.064 81.305 189.235C81.0108 189.406 80.7451 189.605 80.5078 189.842C80.2706 190.079 80.0618 190.345 79.891 190.639C79.7202 190.933 79.6063 191.236 79.5588 191.549C79.5019 191.862 79.5209 192.185 79.6158 192.507C79.7107 192.83 79.9005 193.134 80.1852 193.418C80.4699 193.703 80.7735 193.892 81.0962 193.997C81.4188 194.101 81.732 194.111 82.0547 194.063C82.3678 194.016 82.681 193.902 82.9752 193.731C83.2694 193.56 83.5351 193.361 83.7723 193.124C84.0096 192.887 84.2184 192.621 84.3892 192.327H84.3797Z" fill="#1D1D1B"/>
<path d="M78.4207 182.206L75.0043 186.901V186.92L80.3566 184.606L80.9355 185.327L76.8074 190.838L76.238 190.136L79.7492 185.64V185.621L74.4728 187.935L73.8655 187.186L77.2724 182.557V182.538L72.0814 184.957L71.5215 184.264L77.8418 181.476L78.4207 182.196V182.206Z" fill="#1D1D1B"/>
<path d="M67.7452 178.317C67.3941 177.739 67.2802 177.217 67.3941 176.743C67.508 176.268 67.8401 175.87 68.3716 175.548C68.903 175.225 69.406 175.121 69.89 175.234C70.3645 175.348 70.782 175.699 71.1237 176.278L72.177 178.023L74.5116 176.61L74.9671 177.369L69.2541 180.821L67.7358 178.317H67.7452ZM70.6397 176.923C70.3834 176.487 70.1082 176.221 69.8046 176.136C69.5009 176.041 69.1782 176.107 68.8366 176.306C68.495 176.515 68.2957 176.771 68.2387 177.075C68.1818 177.378 68.2862 177.748 68.5424 178.184L69.4439 179.674L71.5412 178.403L70.6397 176.913V176.923Z" fill="#1D1D1B"/>
<path d="M65.0583 173.423L69.8128 168.063L70.2588 168.936L68.7973 170.501L70.0785 173.015L72.2042 172.768L72.6218 173.575L65.4949 174.295L65.0488 173.423H65.0583ZM68.2659 171.089L65.9978 173.499V173.518L69.2908 173.11L68.2564 171.099L68.2659 171.089Z" fill="#1D1D1B"/>
<path d="M62.2397 167.181C62.0024 166.593 61.955 166.071 62.1068 165.626C62.2587 165.18 62.5908 164.848 63.0843 164.639C63.4639 164.487 63.8245 164.44 64.1756 164.487C64.5268 164.544 64.8304 164.734 65.0867 165.066H65.1056C65.0677 164.867 65.0677 164.696 65.1056 164.554C65.1436 164.411 65.2005 164.279 65.2859 164.165C65.3714 164.051 65.4757 163.956 65.5991 163.861C65.7225 163.776 65.8553 163.69 65.9977 163.615C66.14 163.539 66.2919 163.472 66.4437 163.396C66.5956 163.33 66.7474 163.254 66.8803 163.169C67.0226 163.083 67.146 162.989 67.2693 162.894C67.3832 162.799 67.4781 162.685 67.5445 162.552L67.9241 163.472C67.8862 163.558 67.8103 163.634 67.7154 163.7C67.611 163.766 67.4971 163.833 67.3642 163.89C67.2314 163.947 67.089 164.013 66.9372 164.089C66.7854 164.165 66.643 164.241 66.5007 164.326C66.3583 164.411 66.2255 164.497 66.1116 164.592C65.9882 164.686 65.8933 164.781 65.8269 164.905C65.7604 165.018 65.713 165.151 65.7035 165.294C65.694 165.436 65.732 165.616 65.8079 165.815L66.6335 167.817L69.2717 166.735L69.6039 167.561L63.4259 170.093L62.2397 167.191V167.181ZM64.9728 165.863C64.8779 165.701 64.7545 165.569 64.6217 165.474C64.4888 165.379 64.3275 165.322 64.1566 165.303C63.9858 165.284 63.7865 165.322 63.5588 165.407C63.2456 165.531 63.0273 165.72 62.904 165.976C62.7806 166.233 62.7996 166.546 62.9514 166.935L63.7865 168.974L65.9408 168.092L65.2385 166.384C65.1626 166.195 65.0677 166.014 64.9728 165.853V165.863Z" fill="#1D1D1B"/>
<path d="M61.928 164.354L61.2163 164.582L59.584 159.507L60.2957 159.28L60.979 161.395L66.616 159.583L66.8912 160.428L61.2542 162.239L61.9375 164.354H61.928Z" fill="#1D1D1B"/>
<path d="M65.1437 154.205L65.3524 155.068L62.6953 155.704L59.4592 159.128L59.2125 158.104L61.8412 155.419L58.2919 154.262L58.0547 153.285L62.4865 154.85L65.1437 154.215V154.205Z" fill="#1D1D1B"/>
<path d="M60.7793 146.541L61.5195 146.437L61.8801 149.111L61.1399 149.216L60.7793 146.541Z" fill="#1D1D1B"/>
<path d="M56.5273 138.402L57.277 138.374L57.4194 141.865L59.5356 141.779L59.4123 138.715L60.162 138.687L60.2854 141.751L63.3411 141.628L63.3791 142.519L56.7077 142.794L56.5273 138.412V138.402Z" fill="#1D1D1B"/>
<path d="M56.5656 136.183L62.4873 136.354L62.5917 132.825L63.3414 132.844L63.218 137.264L56.5371 137.075L56.5656 136.183Z" fill="#1D1D1B"/>
<path d="M58.7295 131.829C58.3309 131.649 57.9798 131.412 57.6856 131.108C57.3914 130.805 57.1731 130.444 57.0213 130.027C56.8694 129.61 56.8315 129.135 56.8884 128.614C56.9454 128.092 57.0972 127.637 57.3249 127.257C57.5622 126.878 57.8564 126.584 58.2075 126.347C58.5586 126.119 58.9477 125.958 59.3843 125.872C59.8208 125.787 60.2573 125.768 60.7128 125.815C61.1684 125.863 61.5954 125.977 61.994 126.157C62.4021 126.337 62.7437 126.574 63.0379 126.878C63.3321 127.181 63.5503 127.542 63.6927 127.959C63.835 128.377 63.8825 128.851 63.8255 129.372C63.7686 129.904 63.6263 130.349 63.389 130.729C63.1518 131.108 62.8671 131.412 62.5159 131.639C62.1648 131.867 61.7757 132.028 61.3392 132.114C60.9026 132.199 60.4661 132.218 60.0106 132.171C59.5551 132.123 59.128 132.009 58.7295 131.829V131.829ZM61.1114 131.27C61.4436 131.222 61.7567 131.118 62.0319 130.957C62.3072 130.795 62.5444 130.587 62.7342 130.312C62.924 130.036 63.0379 129.704 63.0853 129.297C63.1328 128.898 63.0853 128.538 62.962 128.234C62.8386 127.931 62.6488 127.665 62.4115 127.447C62.1743 127.229 61.8991 127.068 61.5764 126.944C61.2538 126.821 60.9406 126.745 60.599 126.707C60.2573 126.669 59.9252 126.679 59.593 126.726C59.2609 126.773 58.9477 126.878 58.6725 127.039C58.3878 127.2 58.1601 127.409 57.9703 127.684C57.7805 127.959 57.6666 128.291 57.6191 128.699C57.5717 129.107 57.6191 129.458 57.7425 129.761C57.8659 130.074 58.0462 130.331 58.2929 130.549C58.5302 130.767 58.8054 130.928 59.128 131.051C59.4507 131.175 59.7733 131.251 60.1055 131.289C60.4376 131.326 60.7793 131.317 61.1114 131.27Z" fill="#1D1D1B"/>
<path d="M65.2572 120.276L59.4493 120.561V120.58L64.5929 123.283L64.3936 124.184L57.5039 124.421L57.6937 123.539L63.3971 123.454V123.435L58.3011 120.788L58.5098 119.849L64.2512 119.593V119.574L59.1267 117.06L59.3165 116.197L65.4565 119.365L65.2572 120.267V120.276Z" fill="#1D1D1B"/>
<path d="M61.5941 109.529C61.8219 108.893 62.1635 108.476 62.6095 108.267C63.0555 108.058 63.568 108.068 64.1564 108.277C64.7447 108.495 65.1433 108.817 65.3521 109.263C65.5609 109.709 65.5514 110.24 65.3141 110.876L64.6119 112.792L67.1742 113.731L66.8705 114.565L60.5977 112.279L61.6036 109.529H61.5941ZM64.498 110.904C64.6783 110.43 64.7068 110.05 64.5834 109.756C64.4695 109.462 64.2133 109.254 63.8432 109.111C63.4731 108.978 63.141 108.978 62.8657 109.13C62.5905 109.282 62.3628 109.586 62.192 110.06L61.5941 111.691L63.8907 112.526L64.4885 110.895L64.498 110.904Z" fill="#1D1D1B"/>
<path d="M63.7404 104.359L70.8958 104.71L70.4972 105.602L68.362 105.44L67.2042 108.011L68.7321 109.519L68.362 110.344L63.3418 105.241L63.7404 104.35V104.359ZM67.5648 105.402L64.2718 105.146V105.165L66.6443 107.47L67.5743 105.412L67.5648 105.402Z" fill="#1D1D1B"/>
<path d="M66.8429 98.2697C67.1466 97.7101 67.5262 97.3591 67.9722 97.1884C68.4182 97.0176 68.8832 97.0745 69.3577 97.3401C69.7088 97.5393 69.9746 97.786 70.1549 98.099C70.3352 98.412 70.3731 98.763 70.2782 99.1708H70.2972C70.4206 99.0285 70.5534 98.9242 70.6863 98.8578C70.8192 98.7914 70.9615 98.763 71.1039 98.7535C71.2462 98.7535 71.3886 98.7724 71.5404 98.8104C71.6922 98.8483 71.8346 98.9052 71.9864 98.9716C72.1383 99.038 72.2806 99.1139 72.4324 99.1898C72.5843 99.2657 72.7361 99.3321 72.888 99.389C73.0398 99.4459 73.1916 99.4933 73.3435 99.5218C73.4953 99.5502 73.6377 99.5502 73.78 99.5218L73.296 100.385C73.2011 100.404 73.1062 100.394 72.9923 100.357C72.8785 100.319 72.7551 100.271 72.6222 100.205C72.4894 100.138 72.347 100.072 72.2047 99.9961C72.0528 99.9202 71.901 99.8538 71.7397 99.8063C71.5878 99.7494 71.436 99.702 71.2937 99.6641C71.1513 99.6261 71.009 99.6166 70.8761 99.6356C70.7432 99.6546 70.6104 99.702 70.4965 99.7874C70.3731 99.8727 70.2593 100.006 70.1549 100.195L69.1015 102.092L71.5973 103.477L71.1703 104.255L65.334 101.02L66.8524 98.2697H66.8429ZM69.5855 99.5692C69.6519 99.389 69.6709 99.2183 69.6614 99.0475C69.6519 98.8768 69.595 98.725 69.5095 98.5732C69.4146 98.4215 69.2628 98.2887 69.054 98.1749C68.7598 98.0136 68.4751 97.9567 68.1999 98.0231C67.9247 98.08 67.6875 98.2982 67.4787 98.6586L66.4063 100.584L68.4467 101.713L69.3387 100.091C69.4336 99.9107 69.519 99.7305 69.5855 99.5502V99.5692Z" fill="#1D1D1B"/>
<path d="M68.8353 96.2776L68.209 95.8698L71.1414 91.4116L71.7677 91.8195L70.5435 93.6786L75.4972 96.9321L75.0133 97.672L70.0595 94.4185L68.8353 96.2776V96.2776Z" fill="#1D1D1B"/>
<path d="M78.781 92.3979L78.2401 93.0999L76.0764 91.4304L71.3789 91.0605L72.0242 90.2258L75.7632 90.5862L74.4441 87.0956L75.061 86.2988L76.6268 90.7285L78.7905 92.3979H78.781Z" fill="#1D1D1B"/>
<path d="M82.0182 84.1836L82.5592 84.6958L80.6991 86.6593L80.1582 86.1471L82.0182 84.1836Z" fill="#1D1D1B"/>
<path d="M85.6895 75.77L86.183 76.3297L83.5543 78.6346L84.9493 80.2282L87.2553 78.2078L87.7488 78.7674L85.4427 80.7878L87.4546 83.0833L86.7903 83.6714L82.3965 78.6536L85.699 75.77H85.6895Z" fill="#1D1D1B"/>
<path d="M87.4447 74.395L91.0319 79.1093L93.8504 76.9751L94.3059 77.5726L90.7852 80.2475L86.752 74.9357L87.4637 74.395H87.4447Z" fill="#1D1D1B"/>
<path d="M92.1911 73.3609C92.0772 72.9341 92.0487 72.5167 92.0962 72.0994C92.1436 71.682 92.286 71.2836 92.5232 70.9042C92.7605 70.5248 93.0926 70.1928 93.5386 69.9082C93.9847 69.6237 94.4307 69.4529 94.8672 69.4055C95.3038 69.3581 95.7308 69.396 96.1294 69.5193C96.528 69.6521 96.8981 69.8513 97.2397 70.1359C97.5814 70.4204 97.866 70.7524 98.1128 71.1318C98.3595 71.5113 98.5398 71.9191 98.6442 72.346C98.7486 72.7728 98.7866 73.1902 98.7391 73.6075C98.6917 74.0249 98.5398 74.4233 98.3121 74.7932C98.0748 75.1632 97.7332 75.4951 97.2872 75.7797C96.8411 76.0643 96.3951 76.235 95.9586 76.2919C95.522 76.3488 95.1045 76.3109 94.6964 76.1781C94.2978 76.0453 93.9277 75.8461 93.5861 75.5615C93.2445 75.277 92.9598 74.945 92.713 74.5656C92.4663 74.1862 92.286 73.7783 92.1816 73.3514L92.1911 73.3609ZM94.1175 74.8691C94.3643 75.0968 94.6395 75.277 94.9432 75.3908C95.2373 75.5141 95.56 75.5615 95.8921 75.5331C96.2243 75.5141 96.5659 75.3908 96.9076 75.1726C97.2492 74.9545 97.4959 74.6984 97.6668 74.4138C97.8376 74.1292 97.9135 73.8162 97.9325 73.4937C97.9515 73.1712 97.904 72.8487 97.8091 72.5262C97.7047 72.2037 97.5624 71.9002 97.3821 71.6156C97.2018 71.331 96.9835 71.0749 96.7367 70.8473C96.49 70.6196 96.2148 70.4394 95.9111 70.3256C95.6169 70.2023 95.2943 70.1549 94.9621 70.1833C94.63 70.2023 94.2884 70.3256 93.9467 70.5438C93.6051 70.7619 93.3583 71.018 93.1875 71.3026C93.0167 71.5871 92.9408 71.9002 92.9218 72.2227C92.9028 72.5452 92.9503 72.8677 93.0452 73.1902C93.1496 73.5127 93.2919 73.8162 93.4722 74.1008C93.6525 74.3853 93.8708 74.6415 94.1175 74.8691Z" fill="#1D1D1B"/>
<path d="M105.259 71.2173L101.397 66.8825H101.378L102.497 72.5927L101.672 73.0005L97.1641 67.7931L97.9802 67.3852L101.624 71.7674H101.643L100.505 66.1236L101.368 65.6968L105.164 70.0032H105.183L103.921 64.4257L104.718 64.0273L106.094 70.7904L105.268 71.1983L105.259 71.2173Z" fill="#1D1D1B"/>
<path d="M111.369 61.6182C112.005 61.4 112.546 61.4 112.982 61.6182C113.419 61.8364 113.741 62.2348 113.941 62.8229C114.14 63.411 114.131 63.9327 113.922 64.369C113.704 64.8148 113.276 65.1373 112.641 65.346L110.714 66.0005L111.597 68.5805L110.752 68.8651L108.607 62.5478L111.378 61.6087L111.369 61.6182ZM112.119 64.7389C112.603 64.5871 112.916 64.369 113.068 64.0939C113.22 63.8188 113.229 63.4963 113.106 63.1169C112.973 62.7375 112.773 62.4909 112.479 62.3676C112.195 62.2443 111.806 62.2632 111.331 62.4245L109.689 62.9841L110.477 65.2986L112.119 64.7389Z" fill="#1D1D1B"/>
<path d="M116.741 60.0435L120.955 65.839L120.006 66.0857L118.791 64.3309L116.058 65.0423L115.84 67.1765L114.967 67.4041L115.792 60.2901L116.741 60.0435V60.0435ZM118.326 63.6764L116.466 60.9446H116.447L116.144 64.2455L118.336 63.6764H118.326Z" fill="#1D1D1B"/>
<path d="M123.422 58.6394C124.049 58.535 124.561 58.6014 124.969 58.848C125.377 59.0947 125.624 59.4836 125.719 60.0147C125.785 60.4131 125.757 60.7831 125.634 61.115C125.501 61.447 125.254 61.7031 124.874 61.8834V61.9023C125.074 61.9023 125.244 61.9403 125.377 62.0067C125.51 62.0731 125.624 62.1584 125.719 62.2628C125.814 62.3671 125.89 62.4904 125.947 62.6327C126.004 62.775 126.061 62.9268 126.108 63.0785C126.146 63.2398 126.184 63.401 126.222 63.5623C126.26 63.7235 126.298 63.8848 126.355 64.046C126.412 64.1978 126.469 64.3496 126.535 64.4824C126.611 64.6152 126.696 64.7385 126.81 64.8238L125.833 64.9946C125.757 64.9377 125.7 64.8523 125.662 64.7385C125.624 64.6247 125.586 64.5013 125.548 64.3591C125.51 64.2168 125.482 64.065 125.453 63.8943C125.415 63.733 125.368 63.5718 125.311 63.42C125.254 63.2682 125.197 63.1165 125.14 62.9837C125.074 62.8414 124.998 62.7276 124.903 62.6327C124.808 62.5379 124.685 62.4715 124.542 62.4335C124.4 62.3956 124.229 62.3861 124.011 62.4335L121.876 62.8035L122.36 65.6111L121.486 65.7629L120.348 59.1895L123.441 58.6488L123.422 58.6394ZM124.125 61.5893C124.305 61.5229 124.457 61.4376 124.58 61.3237C124.704 61.2099 124.789 61.0676 124.846 60.9064C124.903 60.7451 124.912 60.5364 124.865 60.2993C124.808 59.9673 124.666 59.7112 124.447 59.5405C124.229 59.3602 123.906 59.3128 123.498 59.3792L121.325 59.7586L121.724 62.0541L123.546 61.7411C123.745 61.7031 123.935 61.6557 124.115 61.5988L124.125 61.5893Z" fill="#1D1D1B"/>
<path d="M126.23 58.943L126.154 58.2031L131.469 57.6909L131.545 58.4308L129.333 58.6395L129.903 64.5394L129.02 64.6248L128.451 58.7248L126.24 58.9335L126.23 58.943Z" fill="#1D1D1B"/>
<path d="M135.493 64.2549L134.601 64.2739L134.544 61.5421L131.887 57.6531L132.94 57.6341L134.999 60.7738L136.897 57.5488L137.903 57.5298L135.436 61.5231L135.493 64.2549V64.2549Z" fill="#1D1D1B"/>
<path d="M143.91 61.6086L143.853 62.3579L141.158 62.1493L141.215 61.3999L143.91 61.6086Z" fill="#1D1D1B"/>
</g>
<defs>
<clipPath id="clip0_1205_122">
<rect width="160" height="160" fill="white" transform="translate(56.5273 57.5298)"/>
</clipPath>
</defs>
</svg>
