<svg width="24" height="24" viewBox="0 0 24 24" fill="none" xmlns="http://www.w3.org/2000/svg">
<path d="M9 14.4375C9.51777 14.4375 9.9375 14.0178 9.9375 13.5C9.9375 12.9822 9.51777 12.5625 9 12.5625C8.48223 12.5625 8.0625 12.9822 8.0625 13.5C8.0625 14.0178 8.48223 14.4375 9 14.4375Z" fill="black"/>
<path d="M15 14.4375C15.5178 14.4375 15.9375 14.0178 15.9375 13.5C15.9375 12.9822 15.5178 12.5625 15 12.5625C14.4822 12.5625 14.0625 12.9822 14.0625 13.5C14.0625 14.0178 14.4822 14.4375 15 14.4375Z" fill="black"/>
<path d="M6.97656 7.50045C8.60242 6.99089 10.2978 6.73785 12.0016 6.75045C13.7054 6.73785 15.4007 6.99089 17.0266 7.50045" stroke="black" stroke-width="1.5" stroke-linecap="round" stroke-linejoin="round"/>
<path d="M17.0266 16.5C15.4007 17.0096 13.7054 17.2626 12.0016 17.25C10.2978 17.2626 8.60242 17.0096 6.97656 16.5" stroke="black" stroke-width="1.5" stroke-linecap="round" stroke-linejoin="round"/>
<path d="M14.5297 17.0723L15.6641 19.3223C15.7371 19.4757 15.8612 19.5989 16.0152 19.6708C16.1691 19.7426 16.3433 19.7586 16.5078 19.716C18.8047 19.1535 20.7922 18.1785 22.2359 16.9223C22.3448 16.8262 22.4238 16.701 22.4637 16.5615C22.5036 16.4219 22.5026 16.2738 22.4609 16.1348L19.2828 5.52227C19.2519 5.41366 19.1959 5.31383 19.1194 5.23079C19.0429 5.14775 18.9479 5.08382 18.8422 5.04415C17.9443 4.67577 17.0157 4.38716 16.0672 4.18164C15.8849 4.14173 15.6943 4.17032 15.5318 4.26196C15.3692 4.35361 15.2461 4.50189 15.1859 4.67852L14.4453 6.91915" stroke="black" stroke-width="1.5" stroke-linecap="round" stroke-linejoin="round"/>
<path d="M9.46714 17.0723L8.33277 19.3223C8.25978 19.4757 8.13563 19.5989 7.98166 19.6708C7.82769 19.7426 7.6535 19.7586 7.48902 19.716C5.19214 19.1535 3.20464 18.1785 1.76089 16.9223C1.65204 16.8262 1.573 16.701 1.53312 16.5615C1.49325 16.4219 1.49421 16.2738 1.53589 16.1348L4.71402 5.52227C4.74495 5.41366 4.80092 5.31383 4.87745 5.23079C4.95398 5.14775 5.04892 5.08382 5.15464 5.04415C6.05254 4.67577 6.98112 4.38716 7.92964 4.18164C8.11192 4.14173 8.30251 4.17032 8.46506 4.26196C8.6276 4.35361 8.75071 4.50189 8.81089 4.67852L9.55152 6.91915" stroke="black" stroke-width="1.5" stroke-linecap="round" stroke-linejoin="round"/>
</svg>
