<svg width="106" height="104" viewBox="0 0 106 104" fill="none" xmlns="http://www.w3.org/2000/svg">
<path d="M42.0172 0H67.5889C70.4661 0 72.4739 2.84469 71.5039 5.54673L57.2205 45.3312L86.0692 15.6965C87.9916 13.7216 91.2739 14.1282 92.6537 16.5122L105.439 38.603C106.878 41.0886 105.412 44.2454 102.581 44.7585L62.6197 52L102.581 59.2415C105.412 59.7546 106.878 62.9114 105.439 65.397L92.6537 87.4878C91.2739 89.8718 87.9916 90.2784 86.0692 88.3035L56.3307 57.7547L67.9833 98.7195C68.7366 101.368 66.7424 104 63.9828 104H38.4111C35.5339 104 33.5261 101.155 34.4961 98.4533L48.7795 58.6688L19.9308 88.3035C18.0084 90.2784 14.7261 89.8718 13.3463 87.4878L0.560541 65.397C-0.878207 62.9114 0.587663 59.7546 3.4186 59.2415L43.3803 52L3.4186 44.7585C0.587663 44.2454 -0.878207 41.0886 0.560541 38.603L13.3463 16.5122C14.7261 14.1282 18.0084 13.7216 19.9308 15.6965L49.6693 46.2453L38.0167 5.28045C37.2634 2.63223 39.2576 0 42.0172 0Z" fill="black"/>
</svg>
