<svg width="664" height="817" viewBox="0 0 664 817" fill="none" xmlns="http://www.w3.org/2000/svg">
<path d="M10.3247 4.74707C44.627 4.74707 78.7135 4.74707 113.016 4.74707C113.016 27.3995 113.016 38.6179 113.016 61.2704C95.7568 61.2704 86.9116 61.2704 69.6525 61.2704C69.6525 105.281 69.6525 149.076 69.6525 193.086C86.0486 193.086 94.2467 193.086 110.643 193.086C110.643 215.739 110.643 226.957 110.643 249.61C94.2467 249.61 86.0486 249.61 69.6525 249.61C69.6525 302.25 62.7489 358.341 82.8126 407.745C104.386 461.033 84.5385 479.802 72.2414 531.147C50.0204 623.915 69.6525 717.976 69.6525 812.254C45.9214 812.254 34.0558 812.254 10.3247 812.254C10.3247 743.218 -6.71864 668.788 2.98957 601.262C7.52006 570.196 9.89318 538.914 20.2486 509.142C34.703 467.505 41.3909 453.913 24.3476 409.471C2.34236 352.301 10.3247 288.442 10.3247 227.604C10.3247 153.39 10.3247 79.1766 10.3247 4.74707Z" fill="#010101"/>
<path d="M127.255 4.74707C150.987 4.74707 162.852 4.74707 186.583 4.74707C186.583 76.1563 186.583 147.35 186.583 218.759C186.583 269.242 176.875 331.806 189.172 380.562C197.37 412.923 220.238 437.733 212.04 473.114C206.215 497.708 190.682 516.261 186.799 541.934C181.837 573.863 174.933 610.539 176.228 643.115C177.738 681.085 186.799 717.545 186.799 755.946C205.352 755.946 214.629 755.946 233.183 755.946C233.183 778.599 233.183 789.817 233.183 812.47C198.017 812.47 162.636 812.47 127.471 812.47C127.471 743.433 110.428 669.004 120.136 601.478C124.667 570.412 127.04 539.13 137.395 509.358C151.85 467.72 158.537 454.129 141.494 409.687C119.489 352.516 127.471 288.658 127.471 227.82C127.255 153.39 127.255 79.1766 127.255 4.74707Z" fill="#010101"/>
<path d="M242.458 727.253C237.28 665.552 232.318 617.658 241.595 555.957C250.44 497.492 280.643 468.152 256.481 409.471C238.143 365.029 242.458 320.371 242.458 272.909C242.458 211.855 242.458 150.802 242.458 89.7477C241.595 44.0113 259.933 0.21652 311.278 0.000782274C363.271 -0.214956 378.588 44.227 377.725 89.7477C377.725 150.802 377.725 211.855 377.725 272.909C377.725 320.371 373.411 365.029 391.748 409.471C415.911 468.152 385.492 497.492 376.862 555.957C367.586 617.443 372.548 665.552 377.725 727.253C378.588 772.99 360.251 816.784 308.905 817C256.912 817 241.595 772.774 242.458 727.253ZM310.199 760.477C315.593 760.477 318.613 756.809 318.613 746.238C318.182 708.484 307.611 671.808 307.826 634.27C308.042 609.029 314.514 583.572 317.966 558.762C321.849 530.069 327.459 516.477 337.814 489.51C349.895 457.797 343.855 440.322 332.636 409.687C314.514 360.283 318.613 310.663 318.613 258.455C318.613 195.891 318.613 133.327 318.613 70.7628C318.613 59.9759 315.593 56.5241 310.199 56.5241C304.806 56.5241 301.786 60.1916 301.786 70.7628C301.786 133.327 301.786 195.891 301.786 258.455C301.786 310.663 297.687 360.067 315.809 409.687C327.027 440.322 333.068 457.581 320.986 489.51C310.631 516.477 305.022 530.069 301.138 558.762C297.687 583.787 291.215 609.029 290.999 634.27C290.783 671.808 301.354 708.484 301.786 746.238C301.786 757.025 304.806 760.477 310.199 760.477Z" fill="#010101"/>
<path d="M386.787 4.74707C410.734 4.74707 422.815 4.74707 446.762 4.74707C448.272 73.9989 449.567 143.467 451.077 212.718C452.156 263.201 445.252 320.372 454.745 369.776C460.785 401.058 484.948 427.593 483.869 460.17C483.006 483.901 465.963 504.827 460.138 527.048C441.585 597.163 456.902 664.905 461.648 734.804C463.59 734.804 464.453 734.804 466.394 734.804C464.668 664.473 452.371 596.516 473.514 527.048C480.417 504.396 497.892 484.332 500.049 460.17C502.854 428.025 479.123 400.626 474.377 369.776C466.826 320.587 476.103 262.77 477.181 212.718C478.691 143.467 479.986 73.9989 481.496 4.74707C508.032 4.74707 534.568 4.74707 561.103 4.74707C562.613 73.9989 563.908 143.467 565.418 212.718C566.497 263.201 559.593 320.372 569.086 369.776C575.126 401.058 599.289 427.593 598.21 460.17C597.347 483.901 580.304 504.827 574.479 527.048C555.926 597.163 571.243 664.905 575.989 734.804C577.931 734.804 578.794 734.804 580.735 734.804C579.01 664.473 566.712 596.516 587.855 527.048C594.758 504.396 612.233 484.332 614.391 460.17C617.195 428.025 593.464 400.626 588.718 369.776C581.167 320.587 590.444 262.77 591.522 212.718C593.032 143.467 594.327 73.9989 595.837 4.74707C619.352 4.74707 631.218 4.74707 654.734 4.74707C652.145 78.9609 649.556 153.39 646.967 227.604C644.81 288.442 635.101 351.438 654.518 409.471C669.188 453.266 664.01 468.583 646.751 509.142C634.454 538.051 632.081 570.196 626.256 601.262C619.784 635.996 625.177 666.631 627.982 701.365C631.218 738.04 627.335 775.578 626.04 812.254C596.053 812.254 565.85 812.254 535.862 812.254C535.215 775.578 536.941 737.824 531.763 701.365C528.311 676.123 521.192 652.176 521.839 626.504C523.133 573.648 539.53 529.206 552.258 479.586C560.456 447.873 549.669 429.103 537.804 399.979C527.664 374.953 527.448 355.753 526.801 329.217C525.291 267.3 524.428 205.383 523.349 143.467C521.408 143.467 520.545 143.467 518.603 143.467C517.524 205.383 516.014 267.3 515.151 329.217C514.935 354.674 514.72 376.032 523.565 399.979C534.568 429.535 544.276 448.304 534.999 479.586C520.545 528.774 502.423 573.864 498.971 626.504C497.245 652.176 503.501 676.123 506.09 701.365C509.973 738.04 506.737 775.578 506.09 812.254C476.103 812.254 445.899 812.254 415.912 812.254C413.323 738.256 394.985 662.532 402.752 589.397C406.204 556.82 408.792 529.206 419.795 498.355C432.308 462.759 430.366 444.421 415.696 409.687C390.67 349.928 397.143 280.244 394.769 215.954C391.749 145.408 389.16 75.0776 386.787 4.74707Z" fill="#010101"/>
</svg>
