<svg width="24" height="24" viewBox="0 0 24 24" fill="none" xmlns="http://www.w3.org/2000/svg">
<path fill-rule="evenodd" clip-rule="evenodd" d="M20.5271 6.08896C20.7942 6.79773 20.936 7.54758 20.9461 8.30496C21.0018 9.25756 21.0021 9.5691 21.0041 11.9805L21.0041 12.014C21.0041 14.457 20.9911 14.762 20.9481 15.724C20.9331 16.473 20.7921 17.211 20.5291 17.911C20.2972 18.5086 19.9433 19.0515 19.4899 19.5048C19.0366 19.9581 18.4938 20.312 17.8961 20.544C17.1965 20.8066 16.4572 20.9482 15.7101 20.963C14.7551 21.019 14.4421 21.019 12.0001 21.019C9.55809 21.019 9.25309 21.006 8.29009 20.963C7.54147 20.9383 6.80253 20.7862 6.10509 20.513C5.50716 20.2815 4.96407 19.9279 4.51053 19.4747C4.05699 19.0215 3.70297 18.4787 3.47109 17.881C3.20809 17.18 3.06709 16.442 3.05209 15.694C2.99609 14.738 2.99609 14.426 2.99609 11.984C2.99609 9.54196 3.00909 9.23696 3.05209 8.27396C3.06622 7.52707 3.20792 6.78809 3.47109 6.08896C3.70258 5.49102 4.05634 4.94798 4.50973 4.49459C4.96311 4.0412 5.50615 3.68745 6.10409 3.45596C6.80344 3.19343 7.54225 3.05141 8.28909 3.03596C9.24409 2.98096 9.55709 2.98096 11.9991 2.98096C14.4411 2.98096 14.7461 2.99296 15.7081 3.03596C16.4553 3.0513 17.1944 3.19331 17.8941 3.45596C18.4919 3.68761 19.0349 4.04142 19.4883 4.49479C19.9416 4.94816 20.2954 5.49111 20.5271 6.08896ZM7.37009 11.979C7.37009 14.533 9.43909 16.602 11.9931 16.602C13.2192 16.602 14.3951 16.1149 15.262 15.2479C16.129 14.3809 16.6161 13.2051 16.6161 11.979C16.6161 10.7529 16.129 9.57698 15.262 8.71C14.3951 7.84302 13.2192 7.35596 11.9931 7.35596C9.43909 7.35596 7.37009 9.42496 7.37009 11.979ZM16.3874 8.18117C16.5183 8.2353 16.6585 8.26309 16.8001 8.26296C17.3951 8.26296 17.8771 7.78096 17.8771 7.18496C17.8771 7.04346 17.8492 6.90334 17.7951 6.77262C17.7409 6.64189 17.6616 6.5231 17.5615 6.42305C17.4614 6.32299 17.3427 6.24363 17.2119 6.18948C17.0812 6.13533 16.9411 6.10746 16.7996 6.10746C16.6581 6.10746 16.518 6.13533 16.3873 6.18948C16.2565 6.24363 16.1377 6.32299 16.0377 6.42305C15.9376 6.5231 15.8583 6.64189 15.8041 6.77262C15.75 6.90334 15.7221 7.04346 15.7221 7.18496C15.722 7.32656 15.7498 7.4668 15.8039 7.59765C15.858 7.72849 15.9374 7.84738 16.0375 7.94751C16.1377 8.04764 16.2566 8.12704 16.3874 8.18117ZM14.9959 11.979C14.9959 13.6375 13.6514 14.982 11.9929 14.982C10.3344 14.982 8.98987 13.6375 8.98987 11.979C8.98987 10.3205 10.3344 8.97601 11.9929 8.97601C13.6514 8.97601 14.9959 10.3205 14.9959 11.979Z" fill="#02010A"/>
</svg>
