<svg width="339" height="120" viewBox="0 0 339 120" fill="none" xmlns="http://www.w3.org/2000/svg">
<path d="M21.4047 14.1603H14.6601V53.4348H20.5616V66.7525H14.6601V118.994H0V0.842602H21.4047V14.1603Z" fill="white"/>
<path d="M39.7181 1.00644V105.676H46.7905V118.994H25.0346V1.00644H39.7181Z" fill="white"/>
<path d="M82.1762 103.148C82.1762 113.774 75.2677 120 65.4787 120C55.6897 120 48.6172 113.774 48.6172 103.148V16.852C48.6172 6.41311 55.6897 0 65.4787 0C75.2677 0 82.1762 6.22586 82.1762 16.852V103.148ZM65.3147 13.3177C63.7925 13.3177 63.1134 14.3242 63.1134 16.6881V103.312C63.1134 105.676 63.7925 106.682 65.3147 106.682C66.837 106.682 67.68 105.676 67.68 103.312V16.6881C67.68 14.3242 67.0009 13.3177 65.3147 13.3177Z" fill="white"/>
<path d="M139.294 118.994H119.576L116.719 38.268L116.204 19.567H115.876L115.548 38.268L112.691 118.994H92.9722L85.8998 1.02984H102.246L103.253 78.385L103.417 101.65H103.745L104.588 78.385L107.96 1.02984H124.306L127.679 78.385L128.522 101.65H128.85L130.021 1.02984H145.875L139.294 118.994Z" fill="white"/>
<path d="M191.261 53.4348C191.261 64.0608 186.038 69.1164 174.399 69.1164H172.198V118.994H157.538V1.00644H174.563C186.038 1.00644 191.261 6.06203 191.261 16.6881V53.4348ZM174.399 14.3242H172.198V55.9625H174.399C175.921 55.9625 176.6 54.9561 176.6 52.5921V17.5307C176.6 15.1668 175.921 14.3242 174.399 14.3242Z" fill="white"/>
<path d="M211.916 118.994L210.745 89.8303H205.359L204.352 118.994H189.855L198.614 1.02984H218.684L227.958 118.994H211.916ZM210.23 76.6998L208.871 41.6384L208.192 18.3733H207.864L207.349 41.6384L205.827 76.6998H210.23Z" fill="white"/>
<path d="M246.622 65.7226H244.421V118.97H229.761V1.00644H246.786C258.074 1.00644 263.484 5.89819 263.484 16.6881V44.1662C263.484 52.9198 262.641 56.969 256.903 59.0053V59.3329C262.641 61.3458 263.484 65.395 263.484 74.172V103.663C263.484 110.24 263.648 113.446 265.498 118.666V118.994H250.486C249.315 114.266 248.8 110.731 248.8 103.663V69.1164C248.8 66.7525 248.285 65.746 246.599 65.746L246.622 65.7226ZM246.622 14.3242H244.421V52.5921H246.622C248.308 52.5921 248.824 51.5857 248.824 49.2218V17.5307C248.824 15.1668 248.308 14.3242 246.622 14.3242Z" fill="white"/>
<path d="M297.113 1.00644H267.418V14.3242H275.849V118.994H290.532V14.3242H298.963V13.9263L297.113 1.00644Z" fill="white"/>
<path d="M326.738 80.234V118.994H312.078V80.234L300.79 1.02984H315.801L318.494 41.6384L319.173 58.4903H319.501L320.18 41.6384L323.038 1.02984H338.049L326.761 80.234H326.738Z" fill="white"/>
</svg>
