<svg width="24" height="24" viewBox="0 0 24 24" fill="none" xmlns="http://www.w3.org/2000/svg">
<path d="M19.7466 8.14362C19.7595 8.32041 19.7595 8.49619 19.7595 8.67196C19.7595 14.0513 15.7379 20.25 8.38815 20.25C6.1238 20.25 4.0202 19.5822 2.25 18.4225C2.57149 18.4599 2.88108 18.473 3.21547 18.473C5.01444 18.4775 6.76247 17.865 8.17779 16.7345C7.34372 16.7191 6.53517 16.4389 5.86506 15.9331C5.19494 15.4273 4.69671 14.721 4.43993 13.9129C4.687 13.9503 4.93507 13.9756 5.19504 13.9756C5.55325 13.9756 5.91344 13.9251 6.24784 13.8372C5.34265 13.6511 4.52871 13.1516 3.94441 12.4236C3.36011 11.6955 3.04152 10.784 3.04282 9.84381V9.7933C3.57567 10.0954 4.19385 10.2843 4.84874 10.3095C4.30011 9.93835 3.85025 9.4347 3.53929 8.84349C3.22833 8.25228 3.06595 7.5919 3.06663 6.92127C3.06663 6.16563 3.2641 5.47262 3.6104 4.86852C4.61471 6.12625 5.86731 7.15519 7.28707 7.8887C8.70684 8.62222 10.2621 9.04394 11.8522 9.12656C11.7906 8.82349 11.7529 8.50932 11.7529 8.19413C11.7527 7.65969 11.8559 7.13044 12.0566 6.63663C12.2574 6.14282 12.5518 5.69414 12.923 5.31623C13.2942 4.93832 13.7349 4.6386 14.2199 4.4342C14.705 4.22981 15.2248 4.12473 15.7498 4.125C16.9008 4.125 17.9397 4.61596 18.67 5.40999C19.5648 5.23383 20.4229 4.90127 21.2062 4.42705C20.908 5.36737 20.2832 6.16472 19.4489 6.66972C20.2425 6.57757 21.0181 6.3651 21.75 6.03935C21.2034 6.85065 20.5261 7.56209 19.7466 8.14362Z" fill="#02010A"/>
</svg>
